<svg width="24" height="24" viewBox="0 0 24 24" fill="none" xmlns="http://www.w3.org/2000/svg">
<mask id="mask0_1413_1958" style="mask-type:alpha" maskUnits="userSpaceOnUse" x="7" y="9" width="10" height="7">
<path d="M7 9H17V15.6667H7V9Z" fill="white"/>
</mask>
<g mask="url(#mask0_1413_1958)">
<path d="M17.0003 9.52988C17.0003 9.62879 16.9664 9.72629 16.9003 9.81248L12.5522 15.4193C12.4323 15.5733 12.2245 15.6673 12.0002 15.6673C11.7758 15.6673 11.568 15.5733 11.4481 15.4193L7.10003 9.81248C6.97396 9.64928 6.96614 9.44298 7.08177 9.27412C7.19654 9.10456 7.41477 9 7.65212 9H16.3482C16.5855 9 16.8038 9.10456 16.9185 9.27412C16.9733 9.35396 17.0003 9.44227 17.0003 9.52988Z" fill="#C6CFE6"/>
</g>
</svg>
