<svg width="32" height="32" viewBox="0 0 32 32" fill="none" xmlns="http://www.w3.org/2000/svg">
<g clip-path="url(#clip0_1413_2280)">
<path d="M0 8.05234V11.5554H5.00267L0 8.05234ZM4.14578 27.5554H11.5556V22.367L4.14578 27.5554ZM20.4444 22.3679V27.5554H27.8533L20.4444 22.3679ZM0 20.4443V23.9474L5.00444 20.4443H0ZM27.8551 4.44434H20.4444V9.63278L27.8551 4.44434ZM32 23.9483V20.4443H26.9947L32 23.9483ZM32 11.5554V8.05234L26.9964 11.5554H32ZM11.5556 4.44434H4.14578L11.5556 9.63278V4.44434Z" fill="#00247D"/>
<path d="M22.3468 20.4447L30.9796 26.49C31.4012 26.0556 31.7043 25.5203 31.8596 24.9353L25.4463 20.4447H22.3468ZM11.5556 20.4447H9.65254L1.02054 26.4891C1.48365 26.9602 2.07743 27.2971 2.7432 27.4535L11.5556 21.2829V20.4447ZM20.4445 11.5558H22.3476L30.9796 5.51132C30.5086 5.03334 29.9115 4.6989 29.2579 4.54688L20.4445 10.7175V11.5558ZM9.65254 11.5558L1.02054 5.51132C0.599162 5.94596 0.295928 6.48114 0.139648 7.06599L6.55298 11.5558H9.65254Z" fill="#CF1B2B"/>
<path d="M32 18.6666H18.6667V27.5554H20.4444V22.3679L27.8533 27.5554H28.4444C28.9167 27.5555 29.3842 27.4613 29.8195 27.2783C30.2548 27.0953 30.6492 26.8271 30.9796 26.4897L22.3467 20.4443H25.4462L31.8596 24.935C31.9422 24.6354 32 24.3252 32 23.9999V23.9483L26.9947 20.4443H32V18.6666ZM0 18.6666V20.4443H5.00444L0 23.9474V23.9999C0 24.9697 0.390222 25.847 1.02044 26.4888L9.65244 20.4443H11.5556V21.2826L2.74311 27.4523C3.00444 27.5146 3.27467 27.5554 3.55556 27.5554H4.14578L11.5556 22.367V27.5554H13.3333V18.6666H0ZM32 7.99989C32.0005 7.06832 31.6339 6.17407 30.9796 5.511L22.3476 11.5554H20.4444V10.7172L29.2578 4.54656C28.9915 4.48125 28.7186 4.44695 28.4444 4.44434H27.8551L20.4444 9.63278V4.44434H18.6667V13.3332H32V11.5554H26.9964L32 8.05234V7.99989ZM11.5556 4.44434V9.63278L4.14578 4.44434H3.55556C3.08322 4.44413 2.61561 4.53839 2.18025 4.72158C1.74488 4.90476 1.35055 5.17317 1.02044 5.511L9.65244 11.5554H6.55289L0.139556 7.06567C0.0513602 7.36941 0.00442081 7.68364 0 7.99989L0 8.05234L5.00267 11.5554H0V13.3332H13.3333V4.44434H11.5556Z" fill="#EEEEEE"/>
<path d="M18.6667 13.3332V4.44434H13.3333V13.3332H0V18.6666H13.3333V27.5554H18.6667V18.6666H32V13.3332H18.6667Z" fill="#CF1B2B"/>
</g>
<defs>
<clipPath id="clip0_1413_2280">
<rect width="32" height="32" fill="white"/>
</clipPath>
</defs>
</svg>
