<svg width="24" height="24" viewBox="0 0 24 24" fill="none" xmlns="http://www.w3.org/2000/svg">
<path d="M7.89287 4.89464C7.76833 5.01892 7.66953 5.16654 7.60211 5.32906C7.5347 5.49157 7.5 5.66579 7.5 5.84173C7.5 6.01767 7.5347 6.19188 7.60211 6.3544C7.66953 6.51691 7.76833 6.66454 7.89287 6.78882L13.1052 12.0012L7.89287 17.2135C7.64168 17.4647 7.50057 17.8054 7.50057 18.1606C7.50057 18.5158 7.64168 18.8565 7.89287 19.1077C8.14405 19.3589 8.48473 19.5 8.83996 19.5C9.19518 19.5 9.53586 19.3589 9.78705 19.1077L15.9532 12.9415C16.0777 12.8173 16.1765 12.6696 16.244 12.5071C16.3114 12.3446 16.3461 12.1704 16.3461 11.9945C16.3461 11.8185 16.3114 11.6443 16.244 11.4818C16.1765 11.3193 16.0777 11.1716 15.9532 11.0474L9.78705 4.8812C9.27656 4.37071 8.41679 4.37072 7.89287 4.89464Z" fill="#848A99"/>
</svg>
