<svg width="32" height="32" viewBox="0 0 32 32" fill="none" xmlns="http://www.w3.org/2000/svg">
<g clip-path="url(#clip0_1413_2121)">
<path d="M31.9997 23.9999C31.9997 24.9429 31.6251 25.8473 30.9583 26.514C30.2915 27.1808 29.3871 27.5554 28.4441 27.5554H21.333V4.44434H28.4441C29.3871 4.44434 30.2915 4.81894 30.9583 5.48573C31.6251 6.15253 31.9997 7.0569 31.9997 7.99989V23.9999Z" fill="#ED2939"/>
<path d="M3.55556 4.44434C2.61256 4.44434 1.70819 4.81894 1.0414 5.48573C0.374602 6.15253 0 7.0569 0 7.99989L0 23.9999C0 24.9429 0.374602 25.8473 1.0414 26.514C1.70819 27.1808 2.61256 27.5554 3.55556 27.5554H10.6667V4.44434H3.55556Z" fill="#002495"/>
<path d="M10.667 4.44434H21.3337V27.5554H10.667V4.44434Z" fill="#EEEEEE"/>
</g>
<defs>
<clipPath id="clip0_1413_2121">
<rect width="32" height="32" fill="white"/>
</clipPath>
</defs>
</svg>
