<svg width="24" height="24" viewBox="0 0 24 24" fill="none" xmlns="http://www.w3.org/2000/svg">
<path d="M18.1414 6.07461L13.2581 3.89961C12.5414 3.58294 11.4581 3.58294 10.7414 3.89961L5.85807 6.07461C4.62474 6.62461 4.44141 7.37461 4.44141 7.77461C4.44141 8.17461 4.62474 8.92461 5.85807 9.47461L10.7414 11.6496C11.0997 11.8079 11.5497 11.8913 11.9997 11.8913C12.4497 11.8913 12.8997 11.8079 13.2581 11.6496L18.1414 9.47461C19.3747 8.92461 19.5581 8.17461 19.5581 7.77461C19.5581 7.37461 19.3831 6.62461 18.1414 6.07461Z" fill="#FF8700"/>
<path d="M12.0003 16.2003C11.6836 16.2003 11.3669 16.1337 11.0753 16.0087L5.45859 13.5087C4.60026 13.1253 3.93359 12.1003 3.93359 11.1587C3.93359 10.817 4.20859 10.542 4.55026 10.542C4.89193 10.542 5.16693 10.817 5.16693 11.1587C5.16693 11.6087 5.54193 12.192 5.95859 12.3753L11.5753 14.8753C11.8419 14.992 12.1503 14.992 12.4169 14.8753L18.0336 12.3753C18.4503 12.192 18.8253 11.617 18.8253 11.1587C18.8253 10.817 19.1003 10.542 19.4419 10.542C19.7836 10.542 20.0586 10.817 20.0586 11.1587C20.0586 12.092 19.3919 13.1253 18.5336 13.5087L12.9169 16.0087C12.6336 16.1337 12.3169 16.2003 12.0003 16.2003Z" fill="#FF8700"/>
<path d="M12.0003 20.3331C11.6836 20.3331 11.3669 20.2665 11.0753 20.1415L5.45859 17.6415C4.53359 17.2331 3.93359 16.3081 3.93359 15.2915C3.93359 14.9498 4.20859 14.6748 4.55026 14.6748C4.89193 14.6748 5.16693 14.9498 5.16693 15.2915C5.16693 15.8165 5.47526 16.2915 5.95859 16.5081L11.5753 19.0081C11.8419 19.1248 12.1503 19.1248 12.4169 19.0081L18.0336 16.5081C18.5086 16.2998 18.8253 15.8165 18.8253 15.2915C18.8253 14.9498 19.1003 14.6748 19.4419 14.6748C19.7836 14.6748 20.0586 14.9498 20.0586 15.2915C20.0586 16.3081 19.4586 17.2248 18.5336 17.6415L12.9169 20.1415C12.6336 20.2665 12.3169 20.3331 12.0003 20.3331Z" fill="#FF8700"/>
</svg>
