<svg width="24" height="24" viewBox="0 0 24 24" fill="none" xmlns="http://www.w3.org/2000/svg">
<path d="M19.0832 15.3333V17.4167C19.0832 19.025 17.7748 20.3333 16.1665 20.3333H7.83317C6.22484 20.3333 4.9165 19.025 4.9165 17.4167V16.875C4.9165 15.5667 5.98317 14.5 7.2915 14.5H18.2498C18.7082 14.5 19.0832 14.875 19.0832 15.3333Z" fill="#FF8700"/>
<path d="M14.9165 3.66699H9.08317C5.74984 3.66699 4.9165 4.50033 4.9165 7.83366V14.1503C5.54984 13.592 6.38317 13.2503 7.2915 13.2503H18.2498C18.7082 13.2503 19.0832 12.8753 19.0832 12.417V7.83366C19.0832 4.50033 18.2498 3.66699 14.9165 3.66699ZM12.8332 10.9587H8.6665C8.32484 10.9587 8.0415 10.6753 8.0415 10.3337C8.0415 9.99199 8.32484 9.70866 8.6665 9.70866H12.8332C13.1748 9.70866 13.4582 9.99199 13.4582 10.3337C13.4582 10.6753 13.1748 10.9587 12.8332 10.9587ZM15.3332 8.04199H8.6665C8.32484 8.04199 8.0415 7.75866 8.0415 7.41699C8.0415 7.07533 8.32484 6.79199 8.6665 6.79199H15.3332C15.6748 6.79199 15.9582 7.07533 15.9582 7.41699C15.9582 7.75866 15.6748 8.04199 15.3332 8.04199Z" fill="#FF8700"/>
</svg>
