<svg width="24" height="24" viewBox="0 0 24 24" fill="none" xmlns="http://www.w3.org/2000/svg">
<path d="M21.999 16.7397V4.6697C21.999 3.4697 21.019 2.5797 19.829 2.6797H19.769C17.669 2.8597 14.479 3.9297 12.699 5.0497L12.529 5.1597C12.239 5.3397 11.759 5.3397 11.469 5.1597L11.219 5.0097C9.43902 3.8997 6.25902 2.8397 4.15902 2.6697C2.96902 2.5697 1.99902 3.4697 1.99902 4.6597V16.7397C1.99902 17.6997 2.77902 18.5997 3.73902 18.7197L4.02902 18.7597C6.19902 19.0497 9.54902 20.1497 11.469 21.1997L11.509 21.2197C11.779 21.3697 12.209 21.3697 12.469 21.2197C14.389 20.1597 17.749 19.0497 19.929 18.7597L20.259 18.7197C21.219 18.5997 21.999 17.6997 21.999 16.7397Z" stroke="#848A99" stroke-width="1.2" stroke-linecap="round" stroke-linejoin="round"/>
<path d="M12 5.49023V20.4902" stroke="#848A99" stroke-width="1.2" stroke-linecap="round" stroke-linejoin="round"/>
<path d="M7.75098 8.49023H5.50098" stroke="#848A99" stroke-width="1.2" stroke-linecap="round" stroke-linejoin="round"/>
<path d="M8.50098 11.4902H5.50098" stroke="#848A99" stroke-width="1.2" stroke-linecap="round" stroke-linejoin="round"/>
</svg>
