<svg width="24" height="24" viewBox="0 0 24 24" fill="none" xmlns="http://www.w3.org/2000/svg">
<path d="M12.018 3.66797C8.98388 3.66797 6.51805 6.1338 6.51805 9.16797V11.8171C6.51805 12.3763 6.27971 13.2288 5.99555 13.7055L4.94138 15.4563C4.29055 16.538 4.73971 17.7388 5.93138 18.1421C9.88221 19.4621 14.1447 19.4621 18.0955 18.1421C19.2047 17.7755 19.6905 16.4646 19.0855 15.4563L18.0314 13.7055C17.7564 13.2288 17.518 12.3763 17.518 11.8171V9.16797C17.518 6.14297 15.043 3.66797 12.018 3.66797Z" stroke="#C6CFE6" stroke-width="1.3" stroke-miterlimit="10" stroke-linecap="round"/>
<path d="M13.7139 3.93332C13.4298 3.85082 13.1364 3.78665 12.8339 3.74999C11.9539 3.63999 11.1106 3.70415 10.3223 3.93332C10.5881 3.25499 11.2481 2.77832 12.0181 2.77832C12.7881 2.77832 13.4481 3.25499 13.7139 3.93332Z" stroke="#C6CFE6" stroke-width="1.3" stroke-miterlimit="10" stroke-linecap="round" stroke-linejoin="round"/>
<path d="M14.7681 18.4717C14.7681 19.9842 13.5306 21.2217 12.0181 21.2217C11.2664 21.2217 10.5697 20.91 10.0747 20.415C9.57973 19.92 9.26807 19.2233 9.26807 18.4717" stroke="#C6CFE6" stroke-width="1.3" stroke-miterlimit="10"/>
</svg>
