<svg width="342" height="16" viewBox="0 0 342 16" fill="none" xmlns="http://www.w3.org/2000/svg">
<line y1="7.75" x2="144" y2="7.75" stroke="#848A99" stroke-width="0.5"/>
<path d="M166.265 12.168C164.725 12.168 163.446 11.6593 162.429 10.642C161.402 9.61533 160.889 8.35533 160.889 6.862C160.889 5.35933 161.407 4.08533 162.443 3.04C163.488 1.99467 164.767 1.472 166.279 1.472C167.791 1.472 169.065 1.99467 170.101 3.04C171.146 4.08533 171.669 5.35 171.669 6.834C171.669 8.318 171.146 9.578 170.101 10.614C169.065 11.65 167.786 12.168 166.265 12.168ZM169.513 6.834C169.513 5.882 169.2 5.09333 168.575 4.468C167.94 3.83333 167.175 3.516 166.279 3.516C165.383 3.516 164.617 3.83333 163.983 4.468C163.357 5.09333 163.045 5.882 163.045 6.834C163.045 7.77667 163.353 8.56067 163.969 9.186C164.594 9.81133 165.364 10.124 166.279 10.124C167.193 10.124 167.963 9.81133 168.589 9.186C169.214 8.56067 169.522 7.77667 169.513 6.834ZM181.268 12H178.846L176.662 8.234H175.43V12H173.358V1.654H177.32C178.468 1.654 179.345 1.97133 179.952 2.606C180.559 3.24067 180.862 4.01533 180.862 4.93C180.862 5.62067 180.68 6.24133 180.316 6.792C179.961 7.33333 179.443 7.72533 178.762 7.968L181.268 12ZM177.306 3.572H175.43V6.372H177.124C177.647 6.372 178.043 6.24133 178.314 5.98C178.594 5.71867 178.734 5.378 178.734 4.958C178.734 4.55667 178.603 4.22533 178.342 3.964C178.09 3.70267 177.745 3.572 177.306 3.572Z" fill="#ABB3C7"/>
<line x1="198" y1="7.75" x2="342" y2="7.75" stroke="#848A99" stroke-width="0.5"/>
</svg>
