<svg width="32" height="32" viewBox="0 0 32 32" fill="none" xmlns="http://www.w3.org/2000/svg">
<path d="M32 23.9999C32 24.9429 31.6254 25.8473 30.9586 26.514C30.2918 27.1808 29.3874 27.5554 28.4444 27.5554H3.55556C2.61256 27.5554 1.70819 27.1808 1.0414 26.514C0.374602 25.8473 0 24.9429 0 23.9999V7.99989C0 7.0569 0.374602 6.15253 1.0414 5.48573C1.70819 4.81894 2.61256 4.44434 3.55556 4.44434H28.4444C29.3874 4.44434 30.2918 4.81894 30.9586 5.48573C31.6254 6.15253 32 7.0569 32 7.99989V23.9999Z" fill="#006600"/>
<path d="M28.4441 4.44434H13.333V27.5554H28.4441C29.3871 27.5554 30.2915 27.1808 30.9583 26.514C31.6251 25.8473 31.9997 24.9429 31.9997 23.9999V7.99989C31.9997 7.0569 31.6251 6.15253 30.9583 5.48573C30.2915 4.81894 29.3871 4.44434 28.4441 4.44434V4.44434Z" fill="#D52B1E"/>
<path d="M13.3338 8.88867C11.4478 8.88867 9.63904 9.63788 8.30545 10.9715C6.97186 12.3051 6.22266 14.1138 6.22266 15.9998C6.22266 17.8858 6.97186 19.6945 8.30545 21.0281C9.63904 22.3617 11.4478 23.1109 13.3338 23.1109C15.2198 23.1109 17.0285 22.3617 18.3621 21.0281C19.6957 19.6945 20.4449 17.8858 20.4449 15.9998C20.4449 14.1138 19.6957 12.3051 18.3621 10.9715C17.0285 9.63788 15.2198 8.88867 13.3338 8.88867V8.88867ZM7.89999 12.9722L9.32399 14.3962L7.13732 15.4896C7.20789 14.6054 7.46801 13.7469 7.89999 12.9722V12.9722ZM7.13732 16.5091L11.0484 18.4709L8.6431 20.0744L8.65555 20.0931C7.77722 19.0928 7.24481 17.836 7.13732 16.5091V16.5091ZM12.4449 22.1509C11.63 22.0346 10.8467 21.7566 10.1409 21.3331H12.4449V22.1509ZM12.4449 20.4442H9.69021L12.4449 18.6078V20.4442ZM12.4449 17.5393L11.9053 17.8993L8.10532 15.9998L9.98621 15.0593L12.4449 17.5171V17.5393ZM12.4449 16.2602L9.29554 13.1109L12.4449 13.6353V16.2602ZM12.4449 12.7118L8.50532 12.078C9.49107 10.8655 10.8979 10.0694 12.4449 9.84867V12.7118V12.7118ZM18.7675 12.9722C19.1996 13.7471 19.4598 14.606 19.5302 15.4904L17.3435 14.3971L18.7675 12.9722V12.9722ZM14.2227 9.84867C15.7695 10.0697 17.1762 10.8658 18.1622 12.078L14.2227 12.7118V9.84867ZM14.2227 13.6353L17.372 13.11L14.2227 16.2602V13.6353ZM14.2227 17.5171L16.6804 15.0593L18.5622 15.9998L14.7631 17.8993L14.2227 17.5393V17.5171ZM14.2227 22.1509V21.3331H16.5267C15.8209 21.7566 15.0375 22.0346 14.2227 22.1509V22.1509ZM14.2227 20.4442V18.6078L16.9773 20.4442H14.2227ZM18.0129 20.0931L18.0253 20.0744L15.62 18.4709L19.5311 16.5091C19.4228 17.8358 18.8905 19.0924 18.0129 20.0931V20.0931Z" fill="#FFCC4D"/>
<path d="M9.77734 11.5557V17.7779C9.77734 18.7209 10.1519 19.6252 10.8187 20.292C11.4855 20.9588 12.3899 21.3334 13.3329 21.3334C14.2759 21.3334 15.1803 20.9588 15.8471 20.292C16.5139 19.6252 16.8885 18.7209 16.8885 17.7779V11.5557H9.77734Z" fill="#D52B1E"/>
<path d="M10.667 12.4443V17.7777C10.667 18.4849 10.9479 19.1632 11.448 19.6633C11.9481 20.1634 12.6264 20.4443 13.3337 20.4443C14.0409 20.4443 14.7192 20.1634 15.2193 19.6633C15.7194 19.1632 16.0003 18.4849 16.0003 17.7777V12.4443H10.667Z" fill="white"/>
<path d="M11.5557 15.1113H15.1112V16.8891H11.5557V15.1113Z" fill="#829ACD"/>
<path d="M12.4443 14.2227H14.2221V17.7782H12.4443V14.2227Z" fill="#829ACD"/>
<path d="M10.667 15.111H11.5559V16.8888H10.667V15.111ZM12.4448 15.111H14.2225V16.8888H12.4448V15.111ZM15.1114 15.111H16.0003V16.8888H15.1114V15.111ZM12.4448 17.7777H14.2225V19.5554H12.4448V17.7777ZM12.4448 12.4443H14.2225V14.2221H12.4448V12.4443Z" fill="#003399"/>
</svg>
